<svg width="40px" height="40px" viewBox="0 0 2.4 2.4" enable-background="new 0 0 48 48" id="_x3C_Layer_x3E_" version="1.1" xml:space="preserve" xmlns="http://www.w3.org/2000/svg" xmlns:xlink="http://www.w3.org/1999/xlink"><g id="envelope_x2C__delivered_letter"><path d="M2.175 2.025h-1.95a0.1 0.1 0 0 1 -0.1 -0.1V0.669A0.244 0.244 0 0 1 0.369 0.425h1.663a0.244 0.244 0 0 1 0.244 0.244V1.925a0.1 0.1 0 0 1 -0.1 0.1" fill="#FFE57F"/><path d="M2.175 2.05h-1.95A0.125 0.125 0 0 1 0.1 1.925V0.8a0.025 0.025 0 0 1 0.05 0v1.125c0 0.041 0.034 0.075 0.075 0.075h1.95c0.041 0 0.075 -0.034 0.075 -0.075V0.669A0.219 0.219 0 0 0 2.031 0.45H0.369a0.025 0.025 0 0 1 0 -0.05h1.663A0.269 0.269 0 0 1 2.3 0.669V1.925c0 0.069 -0.056 0.125 -0.125 0.125" fill="#0277BD"/><path d="M2.25 2.01a0.025 0.025 0 0 1 -0.017 -0.006L1.318 1.181c-0.06 -0.041 -0.148 -0.041 -0.21 0.002a0.025 0.025 0 1 1 -0.028 -0.041 0.238 0.238 0 0 1 0.27 0l0.918 0.825a0.025 0.025 0 0 1 -0.017 0.044" fill="#0277BD"/><path d="M0.164 2.01a0.025 0.025 0 0 1 -0.017 -0.044l0.915 -0.823c0.083 -0.058 0.191 -0.058 0.272 -0.002a0.025 0.025 0 1 1 -0.028 0.041c-0.063 -0.043 -0.15 -0.043 -0.213 0L0.181 2.004a0.025 0.025 0 0 1 -0.017 0.006" fill="#0277BD"/><path d="M0.175 1.794a0.025 0.025 0 0 1 -0.025 -0.025V0.85a0.025 0.025 0 0 1 0.05 0v0.919a0.025 0.025 0 0 1 -0.025 0.025" fill="#FFFFFF"/><path d="M1.086 1.487 0.125 0.688V0.525a0.1 0.1 0 0 1 0.1 -0.1h1.95a0.1 0.1 0 0 1 0.1 0.1v0.163L1.314 1.487a0.188 0.188 0 0 1 -0.228 0" fill="#FFE57F"/><path d="M0.175 0.739a0.025 0.025 0 0 1 -0.025 -0.025V0.525C0.15 0.484 0.184 0.45 0.225 0.45h1.95a0.025 0.025 0 0 1 0 0.05h-1.95a0.025 0.025 0 0 0 -0.025 0.025v0.189a0.025 0.025 0 0 1 -0.025 0.025" fill="#FFF8E1"/><path d="M1.2 1.55a0.213 0.213 0 0 1 -0.13 -0.045L0.109 0.707A0.025 0.025 0 0 1 0.1 0.688V0.525C0.1 0.456 0.156 0.4 0.225 0.4h1.95c0.069 0 0.125 0.056 0.125 0.125v0.163a0.025 0.025 0 0 1 -0.009 0.019l-0.961 0.799a0.215 0.215 0 0 1 -0.13 0.045m-0.098 -0.083a0.163 0.163 0 0 0 0.198 0L2.25 0.676V0.525c0 -0.041 -0.034 -0.075 -0.075 -0.075h-1.95C0.184 0.45 0.15 0.484 0.15 0.525v0.151z" fill="#0277BD"/></g></svg>