<svg width="40px" height="40px" viewBox="0 0 0.8 0.8" xmlns="http://www.w3.org/2000/svg" fill="none"><path fill="#1877F2" d="M0.75 0.4a0.35 0.35 0 0 0 -0.35 -0.35 0.35 0.35 0 0 0 -0.055 0.696v-0.245H0.257V0.4h0.089V0.323c0 -0.088 0.052 -0.136 0.132 -0.136 0.038 0 0.078 0.007 0.078 0.007v0.086h-0.044c-0.044 0 -0.057 0.027 -0.057 0.055V0.4h0.097l-0.015 0.101H0.455v0.245A0.35 0.35 0 0 0 0.75 0.4"/><path fill="#ffffff" d="M0.536 0.501 0.552 0.4H0.455V0.334c0 -0.028 0.014 -0.055 0.057 -0.055h0.044V0.194s-0.04 -0.007 -0.078 -0.007c-0.08 0 -0.132 0.049 -0.132 0.136V0.4H0.257v0.101h0.089v0.245a0.35 0.35 0 0 0 0.109 0v-0.245z"/></svg>