<svg width="40px" height="40px" viewBox="0 0 2 2" xmlns="http://www.w3.org/2000/svg"><defs><radialGradient id="a" cy="0%" r="100.11%" fx="50%" fy="0%" gradientTransform="matrix(0 .9989 -1.152 0 .5 -.5)"><stop offset="0%" stop-color="#20C6B7"/><stop offset="100%" stop-color="#4D9ABF"/></radialGradient></defs><path fill="url(#a)" d="m1.429 0.707 -0.001 0q-0.001 0 -0.001 -0.001a0.006 0.006 0 0 1 -0.001 -0.005l0.039 -0.236 0.181 0.181 -0.189 0.08a0.005 0.005 0 0 1 -0.002 0h-0.001l-0.001 -0.001a0.085 0.085 0 0 0 -0.025 -0.019m0.263 -0.014 0.194 0.194c0.04 0.04 0.06 0.06 0.068 0.084q0.002 0.005 0.003 0.01l-0.463 -0.196 -0.001 0c-0.002 -0.001 -0.004 -0.002 -0.004 -0.004s0.002 -0.003 0.004 -0.004l0.001 0zm0.256 0.35c-0.01 0.019 -0.029 0.038 -0.063 0.071l-0.219 0.218 -0.283 -0.059 -0.002 0c-0.003 0 -0.005 -0.001 -0.005 -0.003a0.085 0.085 0 0 0 -0.033 -0.06c-0.001 -0.001 -0.001 -0.003 -0.001 -0.005q0 0 0 -0.001l0.053 -0.326 0 -0.001c0 -0.003 0.001 -0.005 0.003 -0.005a0.087 0.087 0 0 0 0.058 -0.033c0 -0.001 0.001 -0.001 0.001 -0.001 0.002 -0.001 0.004 0 0.005 0.001zm-0.331 0.34 -0.359 0.359 0.061 -0.378 0 -0.001 0 -0.001c0.001 -0.001 0.002 -0.002 0.003 -0.002l0.001 0a0.093 0.093 0 0 0 0.035 -0.026c0.001 -0.001 0.003 -0.003 0.004 -0.003a0.005 0.005 0 0 1 0.001 0l0.253 0.052zm-0.435 0.435 -0.041 0.041 -0.448 -0.647 -0.001 -0.001c-0.001 -0.001 -0.001 -0.002 -0.001 -0.003q0 -0.001 0.001 -0.002l0.001 -0.001q0.002 -0.003 0.004 -0.006l0.001 -0.002 0 0c0.001 -0.001 0.001 -0.002 0.003 -0.003 0.001 -0.001 0.003 0 0.004 0l0.496 0.102a0.01 0.01 0 0 1 0.004 0.002c0.001 0.001 0.001 0.001 0.001 0.002a0.088 0.088 0 0 0 0.051 0.059c0.001 0.001 0.001 0.002 0 0.004a0.01 0.01 0 0 0 -0.001 0.002c-0.006 0.038 -0.06 0.365 -0.074 0.453m-0.085 0.085c-0.03 0.03 -0.047 0.045 -0.067 0.052a0.1 0.1 0 0 1 -0.06 0c-0.023 -0.007 -0.043 -0.028 -0.084 -0.068L0.437 1.437l0.117 -0.182a0.01 0.01 0 0 1 0.002 -0.002c0.001 -0.001 0.003 -0.001 0.005 0a0.122 0.122 0 0 0 0.082 -0.004c0.001 -0.001 0.003 -0.001 0.004 0a0.01 0.01 0 0 1 0.001 0.002zM0.393 1.393 0.29 1.29l0.204 -0.087a0.005 0.005 0 0 1 0.002 0c0.002 0 0.003 0.002 0.004 0.003a0.15 0.15 0 0 0 0.007 0.009l0.001 0.001c0.001 0.001 0 0.002 0 0.003zm-0.149 -0.149 -0.131 -0.131c-0.022 -0.022 -0.038 -0.038 -0.05 -0.052l0.397 0.082 0.002 0c0.002 0 0.005 0.001 0.005 0.003 0 0.003 -0.003 0.004 -0.005 0.005l-0.001 0.001zM0.042 0.995a0.1 0.1 0 0 1 0.004 -0.025c0.007 -0.023 0.028 -0.043 0.068 -0.084l0.167 -0.167a108.8 108.8 0 0 0 0.231 0.334c0.001 0.002 0.003 0.004 0.001 0.005a0.14 0.14 0 0 0 -0.02 0.026 0.008 0.008 0 0 1 -0.003 0.003c-0.001 0 -0.001 0 -0.002 0H0.489L0.042 0.995zm0.284 -0.32 0.225 -0.225c0.021 0.009 0.098 0.042 0.167 0.071 0.052 0.022 0.099 0.042 0.114 0.049 0.002 0.001 0.003 0.001 0.004 0.003 0 0.001 0 0.002 0 0.003a0.1 0.1 0 0 0 0.026 0.091c0.002 0.002 0 0.004 -0.001 0.006l-0.001 0.001 -0.228 0.353a0.007 0.007 0 0 1 -0.002 0.003c-0.001 0.001 -0.003 0 -0.004 0a0.115 0.115 0 0 0 -0.027 -0.004c-0.008 0 -0.017 0.002 -0.026 0.003h0c-0.001 0 -0.002 0 -0.003 0a0.01 0.01 0 0 1 -0.002 -0.003zm0.27 -0.27 0.291 -0.291c0.04 -0.04 0.06 -0.06 0.084 -0.068a0.1 0.1 0 0 1 0.06 0c0.023 0.007 0.043 0.028 0.084 0.068l0.063 0.063 -0.207 0.32a0.01 0.01 0 0 1 -0.002 0.002c-0.001 0.001 -0.003 0.001 -0.004 0a0.105 0.105 0 0 0 -0.096 0.018c-0.001 0.001 -0.003 0.001 -0.005 0 -0.027 -0.012 -0.237 -0.1 -0.267 -0.113m0.625 -0.184 0.191 0.191 -0.046 0.285v0.001a0.005 0.005 0 0 1 0 0.002c-0.001 0.001 -0.002 0.001 -0.003 0.002a0.09 0.09 0 0 0 -0.027 0.014l-0.001 0.001c-0.001 0.001 -0.001 0.001 -0.002 0.001a0.005 0.005 0 0 1 -0.002 0l-0.291 -0.124 -0.001 0c-0.002 -0.001 -0.004 -0.002 -0.004 -0.004a0.11 0.11 0 0 0 -0.015 -0.046c-0.001 -0.002 -0.003 -0.005 -0.002 -0.007zm-0.197 0.43 0.273 0.116c0.002 0.001 0.003 0.001 0.004 0.003a0.005 0.005 0 0 1 0 0.003c-0.001 0.004 -0.002 0.009 -0.002 0.013v0.008c0 0.002 -0.002 0.003 -0.004 0.003l-0.001 0c-0.043 0.018 -0.607 0.259 -0.607 0.259s-0.002 0 -0.003 -0.001c-0.002 -0.002 0 -0.004 0.001 -0.006l0.001 -0.001 0.224 -0.347 0 -0.001c0.001 -0.002 0.003 -0.004 0.005 -0.004l0.002 0c0.005 0.001 0.01 0.001 0.014 0.001 0.034 0 0.066 -0.017 0.085 -0.045a0.01 0.01 0 0 1 0.002 -0.002c0.001 -0.001 0.003 -0.001 0.005 0m-0.312 0.459 0.614 -0.262s0.001 0 0.002 0.001c0.003 0.003 0.006 0.006 0.009 0.008l0.001 0.001c0.001 0.001 0.003 0.002 0.003 0.003q0 0.001 0 0.001L1.288 1.185l0 0.001c0 0.003 -0.001 0.005 -0.003 0.005a0.087 0.087 0 0 0 -0.069 0.042l0 0c-0.001 0.001 -0.001 0.002 -0.003 0.003 -0.001 0.001 -0.002 0 -0.004 0l-0.49 -0.101c-0.001 0 -0.008 -0.026 -0.008 -0.026"/></svg>