<svg height="30px" width="30px" version="1.1" xmlns="http://www.w3.org/2000/svg" xmlns:xlink="http://www.w3.org/1999/xlink" viewBox="0 0 2.4 2.4" xml:space="preserve"><style type="text/css">.st0{fill:#77B3D4;}
	.st1{opacity:0.2;}
	.st2{fill:#231F20;}
	.st3{fill:#FFFFFF;}</style><g id="Layer_1"><g><path class="st0" cx="32" cy="32" r="32" d="M2.4 1.2A1.2 1.2 0 0 1 1.2 2.4A1.2 1.2 0 0 1 0 1.2A1.2 1.2 0 0 1 2.4 1.2z"/></g><g class="st1"><g><path class="st2" d="M1.087 0.949c-0.015 -0.18 -0.203 -0.266 -0.21 -0.27 -0.011 -0.004 -0.019 -0.004 -0.026 -0.004 -0.217 0.037 -0.247 0.161 -0.251 0.169v0.022c0.259 0.802 0.795 0.949 0.971 0.998q0.022 0.006 0.034 0.011c0.004 0 0.007 0.004 0.011 0.004 0.007 0 0.011 0 0.019 -0.004 0.004 -0.004 0.131 -0.064 0.165 -0.259 0 -0.007 0 -0.019 -0.004 -0.026 -0.004 -0.004 -0.071 -0.131 -0.255 -0.176 -0.011 -0.004 -0.026 0 -0.037 0.007 -0.06 0.049 -0.139 0.101 -0.172 0.109 -0.232 -0.112 -0.364 -0.334 -0.367 -0.375 -0.004 -0.022 0.049 -0.105 0.112 -0.172 0.007 -0.007 0.011 -0.022 0.011 -0.034"/></g></g><g><g><path class="st3" d="M1.087 0.874c-0.015 -0.18 -0.203 -0.266 -0.21 -0.27 -0.011 -0.004 -0.019 -0.004 -0.026 -0.004 -0.217 0.037 -0.247 0.161 -0.251 0.169v0.022c0.259 0.802 0.795 0.949 0.971 0.998q0.022 0.006 0.034 0.011c0.004 0 0.007 0.004 0.011 0.004 0.007 0 0.011 0 0.019 -0.004 0.004 -0.004 0.131 -0.064 0.165 -0.259 0 -0.007 0 -0.019 -0.004 -0.026 -0.004 -0.004 -0.071 -0.131 -0.255 -0.176 -0.011 -0.004 -0.026 0 -0.037 0.007 -0.06 0.049 -0.139 0.101 -0.172 0.109 -0.232 -0.112 -0.364 -0.334 -0.367 -0.375 -0.004 -0.022 0.049 -0.105 0.112 -0.172 0.007 -0.007 0.011 -0.022 0.011 -0.034"/></g></g></g><g id="Layer_2"/></svg>